{
	"asset":{
		"generator":"Khronos glTF Blender I/O v4.4.55",
		"version":"2.0"
	},
	"scene":0,
	"scenes":[
		{
			"name":"Scene",
			"nodes":[
				0
			]
		}
	],
	"nodes":[
		{
			"mesh":0,
			"name":"spot",
			"rotation":[
				0.7071068286895752,
				0,
				0,
				0.7071068286895752
			]
		}
	],
	"meshes":[
		{
			"name":"spot",
			"primitives":[
				{
					"attributes":{
						"POSITION":0
					},
					"indices":1
				}
			]
		}
	],
	"accessors":[
		{
			"bufferView":0,
			"componentType":5126,
			"count":2930,
			"max":[
				0.4715520143508911,
				1.0490000247955322,
				0.7367839813232422
			],
			"min":[
				-0.4715520143508911,
				-0.6689090132713318,
				-0.9536460041999817
			],
			"type":"VEC3"
		},
		{
			"bufferView":1,
			"componentType":5123,
			"count":17568,
			"type":"SCALAR"
		}
	],
	"bufferViews":[
		{
			"buffer":0,
			"byteLength":35160,
			"byteOffset":0,
			"target":34962
		},
		{
			"buffer":0,
			"byteLength":35136,
			"byteOffset":35160,
			"target":34963
		}
	],
	"buffers":[
		{
			"byteLength":70296,
			"uri":"spot.bin"
		}
	]
}
