{
	"asset":{
		"generator":"Khronos glTF Blender I/O v4.4.55",
		"version":"2.0"
	},
	"scene":0,
	"scenes":[
		{
			"name":"Scene",
			"nodes":[
				0
			]
		}
	],
	"nodes":[
		{
			"mesh":0,
			"name":"stanford-bunny",
			"rotation":[
				0.7071068286895752,
				0,
				0,
				0.7071068286895752
			],
			"scale":[
				9.350881576538086,
				9.350881576538086,
				9.350881576538086
			]
		}
	],
	"meshes":[
		{
			"name":"stanford-bunny",
			"primitives":[
				{
					"attributes":{
						"POSITION":0
					},
					"indices":1
				}
			]
		}
	],
	"accessors":[
		{
			"bufferView":0,
			"componentType":5126,
			"count":34834,
			"max":[
				0.0610090009868145,
				0.058800000697374344,
				-0.032986998558044434
			],
			"min":[
				-0.0946900025010109,
				-0.06187399849295616,
				-0.1873210072517395
			],
			"type":"VEC3"
		},
		{
			"bufferView":1,
			"componentType":5123,
			"count":208353,
			"type":"SCALAR"
		}
	],
	"bufferViews":[
		{
			"buffer":0,
			"byteLength":418008,
			"byteOffset":0,
			"target":34962
		},
		{
			"buffer":0,
			"byteLength":416706,
			"byteOffset":418008,
			"target":34963
		}
	],
	"buffers":[
		{
			"byteLength":834716,
			"uri":"bunny.bin"
		}
	]
}
